<svg width="20" height="21" viewBox="0 0 20 21" fill="none" xmlns="http://www.w3.org/2000/svg">
<ellipse cx="7.17956" cy="19.5" rx="1.53845" ry="1.49997" fill="white"/>
<ellipse cx="16.41" cy="19.5" rx="1.53845" ry="1.49997" fill="white"/>
<path fill-rule="evenodd" clip-rule="evenodd" d="M0 3.99998C0 3.44771 0.459191 3 1.02563 3H2.91893C3.73389 3 4.47156 3.47038 4.79821 4.19834L7.85019 10.9998H14.7719L18.0711 5.02585C18.3397 4.53959 18.9617 4.35766 19.4604 4.61949C19.9592 4.88133 20.1458 5.48777 19.8772 5.97403L15.9971 12.9998H7.81329L6.78766 14.9997H17.9485C18.515 14.9997 18.9742 15.4474 18.9742 15.9997C18.9742 16.552 18.515 16.9997 17.9485 16.9997H6.78766C5.26279 16.9997 4.27101 15.4351 4.95296 14.1053L6.04723 11.9715L2.91893 4.99996L1.02563 4.99996C0.459191 4.99996 0 4.55225 0 3.99998Z" fill="white"/>
<path fill-rule="evenodd" clip-rule="evenodd" d="M11.3926 0.414204C11.959 0.414204 12.4182 0.86191 12.4182 1.41418L12.4182 3.94966L15.0187 3.94966C15.5852 3.94966 16.0444 4.39736 16.0444 4.94964C16.0444 5.50191 15.5852 5.94961 15.0187 5.94961L12.4182 5.94961L12.4182 8.48509C12.4182 9.03736 11.959 9.48507 11.3926 9.48507C10.8261 9.48507 10.3669 9.03736 10.3669 8.48509L10.3669 5.94961L7.76643 5.94961C7.19999 5.94961 6.7408 5.50191 6.7408 4.94964C6.74079 4.39736 7.19999 3.94966 7.76643 3.94966L10.3669 3.94966L10.3669 1.41418C10.3669 0.86191 10.8261 0.414204 11.3926 0.414204Z" fill="white"/>
</svg>
