<svg width="20" height="20" viewBox="0 0 20 20" fill="none" xmlns="http://www.w3.org/2000/svg">
<circle cx="7.07028" cy="18.4843" r="1.51511" fill="white"/>
<circle cx="16.1611" cy="18.4843" r="1.51511" fill="white"/>
<path fill-rule="evenodd" clip-rule="evenodd" d="M0 2.82843C0 2.27058 0.452225 1.81836 1.01007 1.81836H2.87465C3.67725 1.81836 4.40372 2.29349 4.72542 3.02879L7.73111 9.89894H14.5478L17.797 3.86466C18.0615 3.3735 18.674 3.18972 19.1652 3.4542C19.6564 3.71868 19.8401 4.33125 19.5757 4.82241L15.7544 11.9191H7.69476L6.68469 13.9392H17.6763C18.2341 13.9392 18.6863 14.3914 18.6863 14.9493C18.6863 15.5071 18.2341 15.9594 17.6763 15.9594H6.68469C5.18295 15.9594 4.20622 14.379 4.87782 13.0358L5.9555 10.8804L2.87465 3.8385L1.01007 3.8385C0.452225 3.8385 0 3.38628 0 2.82843Z" fill="white"/>
<path fill-rule="evenodd" clip-rule="evenodd" d="M8.29584 0.295843C8.6903 -0.0986144 9.32984 -0.0986144 9.7243 0.295843L11.5353 2.10679L13.3462 0.295843C13.7407 -0.0986144 14.3802 -0.0986144 14.7747 0.295843C15.1691 0.690301 15.1691 1.32984 14.7747 1.7243L12.9637 3.53525L14.7747 5.3462C15.1691 5.74066 15.1691 6.3802 14.7747 6.77466C14.3802 7.16912 13.7407 7.16912 13.3462 6.77466L11.5353 4.96371L9.7243 6.77466C9.32984 7.16912 8.6903 7.16912 8.29584 6.77466C7.90139 6.3802 7.90139 5.74066 8.29584 5.3462L10.1068 3.53525L8.29584 1.7243C7.90139 1.32984 7.90139 0.690301 8.29584 0.295843Z" fill="white"/>
</svg>
